<?xml version="1.0" ?><!DOCTYPE svg  PUBLIC '-//W3C//DTD SVG 1.1//EN'  'http://www.w3.org/Graphics/SVG/1.1/DTD/svg11.dtd'><svg enable-background="new 0 0 512 512" height="512px" id="Layer_1" version="1.1" viewBox="0 0 512 512" width="512px" xml:space="preserve" xmlns="http://www.w3.org/2000/svg" xmlns:xlink="http://www.w3.org/1999/xlink"><g id="_x35_._helmet_x2C__armor_x2C__war_x2C__weapon_x2C__battle_x2C__military"><g><path d="M425.371,377.461c-0.32-17.021,2.879-35.148,11.342-53.682c19.337-42.411,29.235-82.587,30.835-119.253    c3.432-71.966-24.603-130.278-73.886-164.942c-35.701-25.242-82.59-38.019-136.747-34.505    C197.086,8.832,128.396,32.474,56.189,81.121l92.816,67.493c20.288-10.542,43.37-16.533,67.894-16.533    c7.746,0,15.257,0.558,22.683,1.677c19.493,3.034,37.785,9.907,53.994,19.731c29.953,18.21,52.965,46.806,63.9,80.831    c4.72,14.38,7.192,29.634,7.192,45.528c0,24.126-5.749,46.81-15.976,66.935c0,0,0,4.157,1.279,11.427    c4.47,25.96,25.156,91.374,120.531,141.616l4.313-10.944C474.817,488.881,426.175,440.878,425.371,377.461z" fill="#ED5565"/></g><g opacity="0.2"><path d="M425.371,377.461c-0.32-17.021,2.879-35.148,11.342-53.682c19.337-42.411,29.235-82.587,30.835-119.253    c3.432-71.966-24.603-130.278-73.886-164.942c-35.701-25.242-82.59-38.019-136.747-34.505    C200.526,8.617,136.267,29.818,68.607,72.977l4.906,3.347c59.977-34.665,116.873-52.099,167.427-55.27    c54.158-3.514,101.045,9.263,136.748,34.505c49.283,34.665,76.756,92.953,73.885,164.942    c-2.238,56.101-15.039,73.948-25.998,119.252C420.098,362.391,425.371,377.461,425.371,377.461z"/></g><g opacity="0.3"><path d="M365.948,342.234C366.291,334.855,365.948,342.234,365.948,342.234    c10.226-20.133,14.695-54.236,14.695-78.358c0-15.898-2.473-31.151-7.191-45.531c-10.937-34.025-33.947-62.621-63.9-80.831    c-16.21-9.825-34.501-16.697-53.994-19.731c-7.426-1.119-14.938-1.677-22.684-1.677c-24.524,0-61.919,2.438-82.208,12.98    L68.615,72.973c-6.693,4.119-5.671,3.597-12.426,8.147l92.816,67.493c20.288-10.542,43.37-16.533,67.894-16.533    c7.746,0,15.257,0.558,22.683,1.677c19.493,3.034,37.785,9.907,53.994,19.731c29.953,18.21,52.965,46.806,63.9,80.831    c4.72,14.38,7.192,29.634,7.192,45.528c0,24.126-5.749,46.81-15.976,66.935c0,0,0,4.157,1.279,11.427    c4.47,25.96,25.156,91.374,120.531,141.616C470.504,499.825,362.75,410.644,365.948,342.234z" fill="#FFFFFF"/></g><g><path d="M216.899,156.043c68.37,0,123.807,55.433,123.807,123.804c0,30.117-10.78,57.754-28.674,79.235    c-16.935,20.608-27.239,60.547,28.674,92.497c0,0-95.85,8.791-95.85-71.085h-0.078c6.95-12.784,12.457-26.365,16.052-40.741    c-66.052-36.021-123.65-100.321-154.797-141.136C144.77,164.109,180.394,156.043,216.899,156.043z" fill="#AAB2BD"/></g><g opacity="0.2"><path d="M312.032,359.083c17.894-21.481,28.674-49.118,28.674-79.235c0-68.371-55.437-123.804-123.807-123.804    c-3.534,0-7.059,0.105-10.585,0.273c65.85,2.843,118.417,56.982,118.417,123.531c0,30.117-10.779,57.754-28.674,79.235    c-16.935,20.608-27.238,60.547,28.674,92.497c0,0-0.194,0.016-0.476,0.039c9.782,0.562,16.451-0.039,16.451-0.039    C284.793,419.63,295.098,379.691,312.032,359.083z"/></g><g><path d="M260.83,339.754c-3.596,14.376-9.102,27.957-16.052,40.741    c-42.418,79.392-135.711,126.997-135.711,126.997H85.104V347.741c0-8.783,7.106-15.975,15.975-15.975h31.95v-23.963l-55.913-7.987    l-23.962,79.875l-15.975,7.988l44.493-225.646c0.796,3.117,9.579,17.173,24.36,36.584    C137.18,239.433,194.778,303.732,260.83,339.754z" fill="#CCD1D9"/></g><g opacity="0.7"><g><path d="M57.749,364.372l36.007-182.587c-7.263-10.421-11.545-17.637-12.083-19.751L37.179,387.68l15.975-7.988     L57.749,364.372z" fill="#FFFFFF"/></g><g><path d="M117.055,331.767H101.08c-8.869,0-15.975,7.191-15.975,15.975v159.751h15.975V347.741     C101.08,338.958,108.186,331.767,117.055,331.767z" fill="#FFFFFF"/></g></g><g opacity="0.2"><g><path d="M106.033,198.618c-4.734-6.217-8.854-11.888-12.293-16.821l-4.642,23.549c0.32,0.418,0.64,0.835,0.96,1.26     c31.146,40.815,88.744,105.115,154.798,141.136c-3.596,14.376-9.104,27.957-16.053,40.741     c-32.27,60.398-93.94,102.372-121.624,119.01h1.888c0,0,93.292-47.605,135.711-126.997c6.95-12.784,12.457-26.365,16.052-40.741     C194.778,303.732,137.18,239.433,106.033,198.618z"/></g></g><g opacity="0.2"><path d="M122.008,190.63c-0.827-1.088-1.568-2.095-2.356-3.147c-4.501,3.37-9.041,7.055-13.62,11.135    c31.147,40.815,88.745,105.115,154.797,141.136c-3.596,14.376-9.102,27.957-16.052,40.741h0.078    c0,5.562,0.507,10.663,1.373,15.397c5.265-7.457,10.171-15.241,14.523-23.385c6.951-12.785,12.457-26.365,16.054-40.741    C210.752,295.744,153.155,231.446,122.008,190.63z"/></g><g><g><path d="M340.706,455.573c-0.679,0-1.357-0.163-1.981-0.522c-25.102-14.345-39.656-31.568-43.269-51.178     c-4.188-22.793,8.034-40.687,13.487-47.325c1.42-1.7,3.924-1.95,5.624-0.546c1.708,1.396,1.95,3.916,0.554,5.616     c-4.751,5.772-15.398,21.311-11.81,40.812c3.167,17.192,16.411,32.559,39.376,45.687c1.919,1.093,2.582,3.534,1.49,5.444     C343.437,454.855,342.087,455.573,340.706,455.573z" fill="#3A3847"/></g><g><path d="M109.067,511.486H85.104c-2.208,0-3.994-1.786-3.994-3.994V347.741c0-2.207,1.786-3.993,3.994-3.993     s3.994,1.786,3.994,3.993v155.758h18.986c9.313-4.953,93.963-51.498,133.167-124.892c7.059-12.972,12.34-26.365,15.702-39.82     c0.53-2.138,2.722-3.448,4.844-2.902c2.146,0.53,3.439,2.699,2.909,4.836c-3.533,14.111-9.056,28.137-16.419,41.678     c-42.504,79.556-136.459,128.176-137.403,128.651C110.323,511.338,109.699,511.486,109.067,511.486z" fill="#3A3847"/></g><g><path d="M37.179,391.673c-0.858,0-1.708-0.272-2.418-0.812c-1.217-0.928-1.794-2.457-1.498-3.954l44.493-225.646     c0.421-2.168,2.551-3.561,4.688-3.147c2.16,0.429,3.572,2.527,3.144,4.692L42.67,380.472l7.153-3.58l23.471-78.222     c0.562-1.889,2.489-3.074,4.384-2.809l55.913,7.987c1.974,0.281,3.433,1.966,3.433,3.955v23.963c0,2.207-1.787,3.993-3.994,3.993     c-2.207,0-3.994-1.786-3.994-3.993v-20.499l-49.08-7.014l-22.98,76.584c-0.312,1.062-1.053,1.936-2.036,2.427l-15.975,7.987     C38.404,391.533,37.788,391.673,37.179,391.673z" fill="#3A3847"/></g><g><path d="M81.68,165.95c-0.188,0-0.375-0.012-0.554-0.039c-2.192-0.304-3.713-2.32-3.409-4.505     c0.305-2.184,2.52-3.946,4.54-3.686c2.192,0.305,3.752,2.04,3.448,4.224l-0.078,0.562C85.354,164.503,83.638,165.95,81.68,165.95     z" fill="#3A3847"/></g><g><path d="M470.504,503.818c-0.64,0-1.279-0.155-1.864-0.46c-97.005-51.1-118.059-118.058-122.606-144.47     c-1.318-7.512-1.333-11.92-1.333-12.106c0-2.2,1.786-3.986,3.985-3.986h0.008c2.2,0,3.986,1.778,3.994,3.979     c0,0.039,0.031,3.978,1.217,10.741c4.29,24.906,24.025,87.527,114.524,136.678l1.731-4.376     c-9.165-9.728-48.05-54.345-48.783-112.31c-0.358-18.963,3.581-37.605,11.701-55.383c18.596-40.788,28.854-80.411,30.476-117.774     c3.3-69.088-22.34-126.436-72.192-161.499C355.355,17.388,309.006,5.692,257.172,9.065     c-62.675,3.932-131.396,29.993-198.752,75.367c-1.825,1.217-4.306,0.761-5.546-1.08c-1.232-1.829-0.749-4.31,1.084-5.542     c68.526-46.171,138.628-72.7,202.708-76.717c53.627-3.471,101.779,8.701,139.306,35.23     c52.153,36.685,78.994,96.49,75.562,168.394c-1.669,38.374-12.16,78.999-31.186,120.723     c-7.621,16.685-11.318,34.157-10.982,51.942c0.771,61.1,47.785,108.191,48.261,108.659c1.139,1.123,1.497,2.815,0.904,4.306     l-4.313,10.943c-0.413,1.054-1.256,1.889-2.324,2.278C471.439,503.74,470.972,503.818,470.504,503.818z" fill="#3A3847"/></g><g><path d="M149.005,152.607c-0.819,0-1.639-0.25-2.348-0.765L53.84,84.35c-1.786-1.295-2.176-3.795-0.881-5.577     c1.295-1.794,3.799-2.176,5.577-0.881l92.816,67.493c1.786,1.295,2.176,3.795,0.881,5.577     C151.455,152.038,150.238,152.607,149.005,152.607z" fill="#3A3847"/></g><g><path d="M133.03,335.76h-31.95c-2.208,0-3.994-1.786-3.994-3.993c0-2.208,1.786-3.994,3.994-3.994h31.95     c2.208,0,3.994,1.786,3.994,3.994C137.024,333.974,135.237,335.76,133.03,335.76z" fill="#3A3847"/></g><g><path d="M85.104,351.735c-2.208,0-3.994-1.786-3.994-3.994c0-11.006,8.955-19.969,19.969-19.969     c2.208,0,3.994,1.786,3.994,3.994c0,2.207-1.787,3.993-3.994,3.993c-6.607,0-11.981,5.375-11.981,11.981     C89.098,349.949,87.312,351.735,85.104,351.735z" fill="#3A3847"/></g><g><path d="M260.83,343.748c-0.646,0-1.303-0.156-1.91-0.484c-73.472-40.07-133.612-112.809-156.062-142.224     c-13.377-17.57-23.916-33.557-25.055-38.019c-0.07-0.266-0.109-0.538-0.125-0.815c-0.093-1.045,0.102-2.204,0.624-2.976     c0.741-1.104,2.114-1.829,3.448-1.829c2.207,0,3.994,1.786,3.994,3.994c0,0.062,0,0.121-0.008,0.183     c1.427,3.319,9.033,15.655,23.471,34.622c22.138,29.002,81.412,100.714,153.534,140.052c1.935,1.053,2.652,3.479,1.6,5.413     C263.615,342.999,262.242,343.748,260.83,343.748z" fill="#3A3847"/></g><g><path d="M312.032,363.077c-0.905,0-1.81-0.305-2.559-0.921c-1.692-1.412-1.919-3.932-0.507-5.624     c17.894-21.489,27.746-48.721,27.746-76.685c0-66.062-53.745-119.811-119.813-119.811c-30.437,0-67.099,4.938-108.207,41.564     c-1.662,1.459-4.181,1.318-5.64-0.327c-1.467-1.646-1.326-4.169,0.32-5.64c43.113-38.405,81.583-43.585,113.526-43.585     c70.468,0,127.801,57.333,127.801,127.798c0,29.828-10.515,58.877-29.603,81.794C314.31,362.586,313.171,363.077,312.032,363.077     z" fill="#3A3847"/></g><g><path d="M348.693,350.775c-0.608,0-1.232-0.14-1.81-0.429c-1.966-0.998-2.753-3.409-1.747-5.374     c10.312-20.297,15.538-42.208,15.538-65.125c0-15.242-2.355-30.146-6.989-44.284c-10.53-32.758-32.613-60.687-62.184-78.663     c-16.233-9.84-33.908-16.299-52.536-19.197c-7.27-1.096-14.493-1.63-22.067-1.63c-23.292,0-45.515,5.409-66.053,16.084     c-1.942,1.006-4.36,0.258-5.383-1.704c-1.021-1.958-0.257-4.368,1.701-5.386c28.417-14.766,61.974-19.942,93.011-15.261     c19.68,3.065,38.338,9.883,55.468,20.265c31.217,18.978,54.524,48.463,65.632,83.027c4.898,14.918,7.387,30.656,7.387,46.749     c0,24.188-5.522,47.316-16.412,68.744C351.549,349.98,350.145,350.775,348.693,350.775z" fill="#3A3847"/></g><g><path d="M332.157,455.886c-15.624,0-48.222-2.621-70.103-22.59c-14.063-12.832-21.193-30.601-21.193-52.801     c0-2.208,1.786-3.993,3.994-3.993c2.207,0,3.994,1.785,3.994,3.993c0,19.868,6.256,35.647,18.588,46.903     c26.482,24.158,72.465,20.258,72.902,20.203c2.145-0.219,4.142,1.412,4.345,3.619c0.202,2.192-1.42,4.135-3.612,4.338     C340.573,455.604,337.273,455.886,332.157,455.886z" fill="#3A3847"/></g><g><path d="M216.899,120.099c-2.208,0-3.994-1.786-3.994-3.994v-89.86c0-2.208,1.786-3.994,3.994-3.994     s3.994,1.787,3.994,3.994v89.86C220.893,118.313,219.107,120.099,216.899,120.099z" fill="#3A3847"/></g><g><path d="M191.251,122.096c-1.927,0-3.627-1.404-3.939-3.37L174.45,37.494c-0.343-2.176,1.146-4.224,3.323-4.567     c2.129-0.347,4.22,1.135,4.571,3.319l12.863,81.233c0.343,2.176-1.146,4.224-3.323,4.567     C191.673,122.081,191.462,122.096,191.251,122.096z" fill="#3A3847"/></g><g><path d="M166.259,128.087c-1.685,0-3.253-1.073-3.799-2.761L138.74,52.158c-0.679-2.098,0.468-4.353,2.566-5.031     c2.145-0.686,4.353,0.472,5.031,2.566l23.721,73.167c0.679,2.098-0.468,4.353-2.566,5.031     C167.079,128.024,166.665,128.087,166.259,128.087z" fill="#3A3847"/></g><g><path d="M134.707,122.416c-1.451,0-2.855-0.795-3.557-2.18l-25.881-50.722c-1.006-1.962-0.226-4.368,1.739-5.371     c1.966-0.991,4.384-0.226,5.375,1.744l25.882,50.722c1.006,1.962,0.226,4.368-1.74,5.37     C135.939,122.276,135.323,122.416,134.707,122.416z" fill="#3A3847"/></g><g><path d="M418.023,429.934c-0.819,0-1.639-0.241-2.348-0.756l-35.781-25.96c-1.785-1.295-2.176-3.799-0.881-5.577     c1.295-1.795,3.799-2.185,5.577-0.89l35.78,25.96c1.786,1.295,2.176,3.791,0.881,5.577     C420.473,429.364,419.256,429.934,418.023,429.934z" fill="#3A3847"/></g><g><path d="M409.396,381.853c-0.609,0-1.225-0.141-1.811-0.437l-43.768-22.2c-1.966-0.999-2.754-3.401-1.755-5.366     c1.014-1.966,3.401-2.754,5.374-1.756l43.768,22.2c1.967,0.998,2.754,3.401,1.756,5.366     C412.251,381.049,410.847,381.853,409.396,381.853z" fill="#3A3847"/></g><g><path d="M413.07,347.586c-0.414,0-0.827-0.062-1.24-0.195l-40.414-13.183c-2.098-0.687-3.237-2.94-2.559-5.031     c0.687-2.106,2.934-3.237,5.039-2.566l40.414,13.183c2.098,0.687,3.236,2.94,2.559,5.031     C416.314,346.517,414.755,347.586,413.07,347.586z" fill="#3A3847"/></g><g><path d="M424.186,316.673c-0.211,0-0.422-0.016-0.632-0.055l-45.53-7.185c-2.177-0.343-3.667-2.387-3.323-4.57     c0.343-2.185,2.426-3.697,4.571-3.315l45.53,7.185c2.177,0.343,3.666,2.387,3.323,4.57     C427.812,315.269,426.112,316.673,424.186,316.673z" fill="#3A3847"/></g><g><path d="M436.877,283.841h-56.233c-2.207,0-3.993-1.786-3.993-3.993c0-2.208,1.786-3.994,3.993-3.994h56.233     c2.207,0,3.993,1.786,3.993,3.994C440.87,282.055,439.084,283.841,436.877,283.841z" fill="#3A3847"/></g><g><path d="M378.639,258.205c-1.926,0-3.627-1.401-3.938-3.366c-0.344-2.18,1.139-4.224,3.323-4.571l67.816-10.784     c2.129-0.378,4.22,1.135,4.57,3.315c0.344,2.18-1.139,4.224-3.322,4.571l-67.816,10.785     C379.061,258.189,378.85,258.205,378.639,258.205z" fill="#3A3847"/></g><g><path d="M372.656,233.205c-1.685,0-3.253-1.073-3.799-2.762c-0.679-2.098,0.469-4.349,2.566-5.031l78.76-25.562     c2.099-0.683,4.354,0.472,5.031,2.566c0.679,2.099-0.468,4.349-2.566,5.031l-78.76,25.562     C373.483,233.142,373.062,233.205,372.656,233.205z" fill="#3A3847"/></g><g><path d="M362.75,209.48c-1.451,0-2.855-0.796-3.557-2.181c-1.007-1.966-0.219-4.372,1.747-5.37l86.584-44.092     c1.942-0.982,4.368-0.222,5.366,1.743c1.006,1.966,0.219,4.372-1.747,5.371l-86.584,44.091     C363.982,209.339,363.366,209.48,362.75,209.48z" fill="#3A3847"/></g><g><path d="M349.333,187.596c-1.232,0-2.449-0.569-3.229-1.646c-1.295-1.786-0.904-4.282,0.882-5.581l88.425-64.22     c1.771-1.283,4.274-0.905,5.577,0.885c1.295,1.786,0.905,4.282-0.882,5.581l-88.424,64.221     C350.972,187.35,350.152,187.596,349.333,187.596z" fill="#3A3847"/></g><g><path d="M332.641,168.103c-1.021,0-2.044-0.391-2.824-1.17c-1.56-1.56-1.56-4.087,0-5.647l82.668-82.668     c1.561-1.56,4.088-1.56,5.648,0c1.56,1.561,1.56,4.088,0,5.647l-82.669,82.668C334.684,167.712,333.662,168.103,332.641,168.103z     " fill="#3A3847"/></g><g><path d="M313.069,151.41c-0.819,0-1.638-0.249-2.348-0.764c-1.786-1.295-2.177-3.795-0.882-5.577l69.728-95.929     c1.303-1.79,3.799-2.168,5.577-0.881c1.786,1.295,2.177,3.795,0.882,5.577l-69.728,95.929     C315.519,150.84,314.302,151.41,313.069,151.41z" fill="#3A3847"/></g><g><path d="M291.182,137.994c-0.616,0-1.232-0.141-1.817-0.437c-1.958-1.002-2.746-3.405-1.739-5.371l52.16-102.321     c0.999-1.974,3.417-2.734,5.375-1.743c1.958,1.002,2.746,3.405,1.739,5.37l-52.161,102.321     C294.037,137.198,292.633,137.994,291.182,137.994z" fill="#3A3847"/></g><g><path d="M267.461,128.087c-0.406,0-0.827-0.062-1.232-0.195c-2.099-0.683-3.245-2.937-2.566-5.035l33.229-102.239     c0.679-2.087,2.94-3.245,5.031-2.562c2.099,0.683,3.245,2.937,2.566,5.035L271.26,125.33     C270.713,127.014,269.146,128.087,267.461,128.087z" fill="#3A3847"/></g><g><path d="M242.547,122.096c-0.21,0-0.421-0.016-0.632-0.051c-2.176-0.343-3.667-2.387-3.323-4.567l15.413-97.45     c0.344-2.181,2.441-3.678,4.571-3.319c2.176,0.343,3.666,2.387,3.323,4.567l-15.414,97.45     C246.174,120.692,244.474,122.096,242.547,122.096z" fill="#3A3847"/></g></g></g></svg>